<?xml version="1.0" encoding="UTF-8" standalone="no"?>
<!-- Created with Inkscape (http://www.inkscape.org/) -->

<svg
   xmlns:dc="http://purl.org/dc/elements/1.1/"
   xmlns:cc="http://creativecommons.org/ns#"
   xmlns:rdf="http://www.w3.org/1999/02/22-rdf-syntax-ns#"
   xmlns:svg="http://www.w3.org/2000/svg"
   xmlns="http://www.w3.org/2000/svg"
   xmlns:sodipodi="http://sodipodi.sourceforge.net/DTD/sodipodi-0.dtd"
   xmlns:inkscape="http://www.inkscape.org/namespaces/inkscape"
   width="297mm"
   height="210mm"
   viewBox="0 0 297 210"
   version="1.1"
   id="svg8"
   sodipodi:docname="drawing.svg"
   inkscape:version="0.92.4 (5da689c313, 2019-01-14)">
  <defs
     id="defs2" />
  <sodipodi:namedview
     id="base"
     pagecolor="#ffffff"
     bordercolor="#666666"
     borderopacity="1.0"
     inkscape:pageopacity="0.0"
     inkscape:pageshadow="2"
     inkscape:zoom="3.959798"
     inkscape:cx="457.37301"
     inkscape:cy="763.44046"
     inkscape:document-units="mm"
     inkscape:current-layer="layer1"
     showgrid="true"
     showguides="true"
     inkscape:guide-bbox="true"
     inkscape:window-width="1920"
     inkscape:window-height="1017"
     inkscape:window-x="1912"
     inkscape:window-y="-8"
     inkscape:window-maximized="1">
    <inkscape:grid
       type="xygrid"
       id="grid3713" />
    <sodipodi:guide
       position="17.197916,289.71876"
       orientation="0,1"
       id="guide4532"
       inkscape:locked="false" />
    <sodipodi:guide
       position="30.427083,273.84376"
       orientation="0,1"
       id="guide4534"
       inkscape:locked="false" />
    <sodipodi:guide
       position="21.166666,264.58334"
       orientation="0,1"
       id="guide4540"
       inkscape:locked="false" />
    <sodipodi:guide
       position="18.520833,248.70834"
       orientation="0,1"
       id="guide4542"
       inkscape:locked="false" />
    <sodipodi:guide
       position="38.364582,268.55209"
       orientation="1,0"
       id="guide4550"
       inkscape:locked="false" />
    <sodipodi:guide
       position="29.104166,256.64584"
       orientation="0,1"
       id="guide4552"
       inkscape:locked="false" />
    <sodipodi:guide
       position="26.458333,242.09376"
       orientation="0,1"
       id="guide4593"
       inkscape:locked="false" />
    <sodipodi:guide
       position="33.072916,226.21876"
       orientation="0,1"
       id="guide4595"
       inkscape:locked="false" />
    <sodipodi:guide
       position="27.781249,234.15626"
       orientation="0,1"
       id="guide4597"
       inkscape:locked="false" />
    <sodipodi:guide
       position="15.875,218.28125"
       orientation="0,1"
       id="guide4613"
       inkscape:locked="false" />
    <sodipodi:guide
       position="58.208332,202.40626"
       orientation="0,1"
       id="guide4627"
       inkscape:locked="false" />
    <sodipodi:guide
       position="29.104166,210.34376"
       orientation="0,1"
       id="guide4629"
       inkscape:locked="false" />
    <sodipodi:guide
       position="25.135416,194.46876"
       orientation="0,1"
       id="guide4644"
       inkscape:locked="false" />
    <sodipodi:guide
       position="3.96875,186.53125"
       orientation="0,1"
       id="guide4646"
       inkscape:locked="false" />
  </sodipodi:namedview>
  <metadata
     id="metadata5">
    <rdf:RDF>
      <cc:Work
         rdf:about="">
        <dc:format>image/svg+xml</dc:format>
        <dc:type
           rdf:resource="http://purl.org/dc/dcmitype/StillImage" />
        <dc:title></dc:title>
      </cc:Work>
    </rdf:RDF>
  </metadata>
  <g
     inkscape:label="Layer 1"
     inkscape:groupmode="layer"
     id="layer1"
     transform="translate(0,-87)">
    <path
       style="fill:none;stroke:#000000;stroke-width:0.70555556;stroke-linecap:square;stroke-linejoin:miter;stroke-miterlimit:4;stroke-dasharray:none;stroke-opacity:1"
       d="m 10.583333,32.416668 7.9375,-8e-6 c 0,0 3.96875,8e-6 3.96875,3.968758 0,3.968749 -3.96875,3.968749 -3.96875,3.968749 0,0 3.96875,0 3.96875,3.96875 0,3.96875 -3.96875,3.96875 -3.96875,3.96875 l -7.9375,-8e-6 z"
       id="path4544"
       inkscape:connector-curvature="0" />
    <path
       style="fill:none;stroke:#000000;stroke-width:0.70555556;stroke-linecap:square;stroke-linejoin:miter;stroke-miterlimit:4;stroke-dasharray:none;stroke-opacity:1"
       d="m 21.166666,31.093751 9.260417,9.260416 7.9375,7.937492"
       id="path4546"
       inkscape:connector-curvature="0" />
    <path
       style="fill:none;stroke:#000000;stroke-width:0.70555556;stroke-linecap:square;stroke-linejoin:miter;stroke-miterlimit:4;stroke-dasharray:none;stroke-opacity:1"
       d="m 30.427083,40.354167 7.9375,-7.937507 h 10.583333 c 0,0 2.645833,8e-6 2.645833,3.968758 0,3.968749 -2.645833,3.968749 -2.645833,3.968749 h -5.291667 l 7.9375,7.937492 7.672918,2e-6 7.9375,-7.9375 -7.9375,-7.9375 15.875,15.875 v -15.875"
       id="path4548"
       inkscape:connector-curvature="0"
       sodipodi:nodetypes="cccscccccccc" />
    <path
       style="fill:none;stroke:#000000;stroke-width:0.70555556;stroke-linecap:square;stroke-linejoin:miter;stroke-miterlimit:4;stroke-dasharray:none;stroke-opacity:1"
       d="m 14.552083,54.906251 7.9375,-8e-6 c 0,0 3.968751,8e-6 3.968751,3.968758 0,3.968749 -3.968751,3.968749 -3.968751,3.968749 0,0 3.968751,0 3.968751,3.96875 0,3.968751 -3.968751,3.968751 -3.968751,3.968751 l -7.9375,-9e-6 z"
       id="path4544-0"
       inkscape:connector-curvature="0" />
    <path
       style="fill:none;stroke:#000000;stroke-width:0.70555556;stroke-linecap:square;stroke-linejoin:miter;stroke-miterlimit:4;stroke-dasharray:none;stroke-opacity:1"
       d="m 26.458333,54.90625 7.937501,7.937499 7.9375,7.937492"
       id="path4546-6"
       inkscape:connector-curvature="0"
       sodipodi:nodetypes="ccc" />
    <path
       style="fill:none;stroke:#000000;stroke-width:0.70555556;stroke-linecap:square;stroke-linejoin:miter;stroke-miterlimit:4;stroke-dasharray:none;stroke-opacity:1"
       d="m 34.395833,62.843741 7.9375,-7.9375 h 7.9375 c 0,0 3.928795,-0.06681 3.928795,3.901942 0,3.968749 -3.928795,4.035567 -3.928795,4.035567 l -3.96875,-9e-6 7.9375,7.937509 h 5.291667 l 7.9375,-7.937509 -7.9375,-7.9375 h -2.645833"
       id="path4548-1"
       inkscape:connector-curvature="0"
       sodipodi:nodetypes="cccsccccccc" />
    <path
       style="fill:none;stroke:#000000;stroke-width:0.70555556;stroke-linecap:square;stroke-linejoin:miter;stroke-miterlimit:4;stroke-dasharray:none;stroke-opacity:1"
       d="M 60.854167,56.229167 75.406249,70.781241 V 54.906252"
       id="path4599"
       inkscape:connector-curvature="0"
       sodipodi:nodetypes="ccc" />
    <path
       style="fill:none;stroke:#000000;stroke-width:0.70555556;stroke-linecap:square;stroke-linejoin:miter;stroke-miterlimit:4;stroke-dasharray:none;stroke-opacity:1"
       d="m 22.489583,78.718751 7.937501,7.937497 7.937499,7.937489"
       id="path4546-6-1"
       inkscape:connector-curvature="0"
       sodipodi:nodetypes="ccc" />
    <path
       style="fill:none;stroke:#000000;stroke-width:0.70555556;stroke-linecap:square;stroke-linejoin:miter;stroke-miterlimit:4;stroke-dasharray:none;stroke-opacity:1"
       d="m 30.427084,86.656248 7.937499,-7.937506 h 10.583334 c 0,0 2.645833,8e-6 2.645833,3.968758 0,3.968748 -2.645833,3.968748 -2.645833,3.968748 H 43.65625 l 7.9375,7.937489 h 5.291667 l 7.9375,-7.937496 -7.9375,-7.937491 15.875,15.874991 v -15.87499"
       id="path4548-1-8"
       inkscape:connector-curvature="0"
       sodipodi:nodetypes="cccscccc" />
    <path
       style="fill:none;stroke:#000000;stroke-width:0.70555556;stroke-linecap:butt;stroke-linejoin:miter;stroke-miterlimit:4;stroke-dasharray:none;stroke-opacity:1"
       d="m 13.229167,78.718751 v 15.87499 l 9.260416,1e-5 c 0,0 3.96875,-10e-7 3.96875,-3.968751 0,-3.96875 -3.96875,-3.968749 -3.96875,-3.968749 l 3.96875,-3.96874 -3.96875,-3.96875 z"
       id="path4631"
       inkscape:connector-curvature="0"
       sodipodi:nodetypes="ccczcccc" />
    <path
       style="fill:none;stroke:#000000;stroke-width:0.70555556;stroke-linecap:square;stroke-linejoin:miter;stroke-miterlimit:4;stroke-dasharray:none;stroke-opacity:1"
       d="m 21.166667,102.53125 7.937501,7.9375 7.937499,7.93749"
       id="path4546-6-1-1"
       inkscape:connector-curvature="0"
       sodipodi:nodetypes="ccc" />
    <path
       style="fill:none;stroke:#000000;stroke-width:0.70555556;stroke-linecap:square;stroke-linejoin:miter;stroke-miterlimit:4;stroke-dasharray:none;stroke-opacity:1"
       d="m 29.104168,110.46875 7.937499,-7.93751 H 47.625 c 0,0 2.645833,1e-5 2.645833,3.96876 0,3.96875 -2.645833,3.96875 -2.645833,3.96875 h -5.291667 l 7.9375,7.93749 h 5.29167 l 7.9375,-7.93749 -7.9375,-7.9375 15.875,15.875 v -15.875"
       id="path4548-1-8-6"
       inkscape:connector-curvature="0"
       sodipodi:nodetypes="cccscccc" />
    <path
       style="fill:none;stroke:#000000;stroke-width:0.70555556;stroke-linecap:butt;stroke-linejoin:miter;stroke-miterlimit:4;stroke-dasharray:none;stroke-opacity:1"
       d="m 14.552083,102.53124 h 6.614583 l 7.9375,7.93751 h -7.9375 l 7.9375,7.9375 H 14.552083 Z"
       id="path4662"
       inkscape:connector-curvature="0"
       sodipodi:nodetypes="ccccccc" />
    <path
       style="stroke-width:0.30167896;stroke-linecap:square;stroke-linejoin:miter;stroke-miterlimit:4;stroke-dasharray:none;paint-order:fill markers stroke"
       d="M 65.616666,62.843741 63.5,60.954214 v 3.779056 z"
       id="rect4664"
       inkscape:connector-curvature="0" />
    <path
       style="stroke-width:0.70555556;stroke-linecap:square;stroke-linejoin:miter;stroke-miterlimit:4;stroke-dasharray:none;paint-order:fill markers stroke"
       d="m 15.610417,55.964575 -10e-7,6.614606 6.614607,-6.614608 z"
       id="rect4686"
       inkscape:connector-curvature="0" />
    <rect
       id="rect45"
       width="11.90625"
       height="1.3229166"
       x="14.552083"
       y="52.260414"
       style="stroke-width:0.26458332" />
    <rect
       id="rect47"
       width="15.875001"
       height="1.3229166"
       x="26.458332"
       y="50.9375"
       style="stroke-width:0.26458332" />
    <rect
       id="rect49"
       width="11.906251"
       height="1.3229154"
       x="42.333332"
       y="52.260418"
       style="stroke-width:0.26458332" />
    <rect
       id="rect51"
       width="13.229168"
       height="1.3229166"
       x="54.239582"
       y="50.9375"
       style="stroke-width:0.22913587" />
    <rect
       id="rect53"
       width="15.875"
       height="1.3229154"
       x="59.53125"
       y="52.260418"
       style="stroke-width:0.22913587" />
    <path
       style="fill:none;stroke:#000000;stroke-width:0.70555556;stroke-linecap:square;stroke-linejoin:miter;stroke-miterlimit:4;stroke-dasharray:none;stroke-opacity:1"
       d="m 100.80623,55.170844 7.9375,7.937499 7.9375,7.937492"
       id="path4546-6-3"
       inkscape:connector-curvature="0"
       sodipodi:nodetypes="ccc" />
    <path
       style="fill:none;stroke:#000000;stroke-width:0.70555556;stroke-linecap:square;stroke-linejoin:miter;stroke-miterlimit:4;stroke-dasharray:none;stroke-opacity:1"
       d="m 108.74373,63.108335 7.9375,-7.9375 h 7.9375 c 0,0 3.92879,-0.06681 3.92879,3.901942 0,3.968749 -3.92879,4.035567 -3.92879,4.035567 l -3.96875,-9e-6 7.9375,7.937509 h 5.29166 l 7.9375,-7.937509 -7.9375,-7.9375 h -2.64583"
       id="path4548-1-4"
       inkscape:connector-curvature="0"
       sodipodi:nodetypes="cccsccccccc" />
    <path
       style="fill:none;stroke:#000000;stroke-width:0.70555556;stroke-linecap:square;stroke-linejoin:miter;stroke-miterlimit:4;stroke-dasharray:none;stroke-opacity:1"
       d="m 135.20206,56.493761 14.55208,14.552074 V 55.170846"
       id="path4599-5"
       inkscape:connector-curvature="0"
       sodipodi:nodetypes="ccc" />
    <path
       style="stroke-width:0.30167896;stroke-linecap:square;stroke-linejoin:miter;stroke-miterlimit:4;stroke-dasharray:none;paint-order:fill markers stroke"
       d="m 169.82468,45.532442 -2.11667,-1.889527 v 3.779056 z"
       id="rect4664-5"
       inkscape:connector-curvature="0" />
    <path
       style="color:#000000;font-style:normal;font-variant:normal;font-weight:normal;font-stretch:normal;font-size:medium;line-height:normal;font-family:sans-serif;font-variant-ligatures:normal;font-variant-position:normal;font-variant-caps:normal;font-variant-numeric:normal;font-variant-alternates:normal;font-feature-settings:normal;text-indent:0;text-align:start;text-decoration:none;text-decoration-line:none;text-decoration-style:solid;text-decoration-color:#000000;letter-spacing:normal;word-spacing:normal;text-transform:none;writing-mode:lr-tb;direction:ltr;text-orientation:mixed;dominant-baseline:auto;baseline-shift:baseline;text-anchor:start;white-space:normal;shape-padding:0;clip-rule:nonzero;display:inline;overflow:visible;visibility:visible;opacity:1;isolation:auto;mix-blend-mode:normal;color-interpolation:sRGB;color-interpolation-filters:linearRGB;solid-color:#000000;solid-opacity:1;vector-effect:none;fill:#000000;fill-opacity:1;fill-rule:nonzero;stroke:none;stroke-width:0.70555556;stroke-linecap:square;stroke-linejoin:miter;stroke-miterlimit:4;stroke-dasharray:none;stroke-dashoffset:0;stroke-opacity:1;color-rendering:auto;image-rendering:auto;shape-rendering:auto;text-rendering:auto;enable-background:accumulate"
       d="m 97.938725,54.863359 -0.60978,0.609783 c 0.351412,0.04467 0.876642,0.147661 1.423686,0.421164 0.90805,0.454022 1.789039,1.289097 1.789039,3.155878 0,1.866784 -0.880989,2.704441 -1.789039,3.158464 -0.908042,0.454022 -1.826246,0.458888 -1.826246,0.458888 v 0.705381 c 0,0 0.918204,0.0049 1.826246,0.458889 0.90805,0.454022 1.789049,1.289097 1.789039,3.155878 0,1.866784 -0.880989,2.704441 -1.789039,3.158464 -0.908042,0.454022 -1.826246,0.458888 -1.826246,0.458888 h -7.586099 v -7.143234 l -0.704869,0.704865 v 7.14375 h 8.290968 c 0,0 1.066175,0.0049 2.142505,-0.533299 1.07633,-0.538168 2.17765,-1.687465 2.17765,-3.789434 0,-2.101966 -1.10132,-3.248684 -2.17765,-3.786849 -0.36486,-0.182427 -0.405241,-0.100856 -0.726572,-0.179834 0.321482,-0.07898 0.361482,0.0012 0.726572,-0.181383 1.07633,-0.538165 2.17765,-1.687467 2.17765,-3.789434 0,-2.101966 -1.10132,-3.248681 -2.17765,-3.786849 -0.395957,-0.19798 -0.789516,-0.321717 -1.130165,-0.399976 z"
       id="path4544-0-0-6"
       inkscape:connector-curvature="0" />
    <path
       style="color:#000000;font-style:normal;font-variant:normal;font-weight:normal;font-stretch:normal;font-size:medium;line-height:normal;font-family:sans-serif;font-variant-ligatures:normal;font-variant-position:normal;font-variant-caps:normal;font-variant-numeric:normal;font-variant-alternates:normal;font-feature-settings:normal;text-indent:0;text-align:start;text-decoration:none;text-decoration-line:none;text-decoration-style:solid;text-decoration-color:#000000;letter-spacing:normal;word-spacing:normal;text-transform:none;writing-mode:lr-tb;direction:ltr;text-orientation:mixed;dominant-baseline:auto;baseline-shift:baseline;text-anchor:start;white-space:normal;shape-padding:0;clip-rule:nonzero;display:inline;overflow:visible;visibility:visible;opacity:1;isolation:auto;mix-blend-mode:normal;color-interpolation:sRGB;color-interpolation-filters:linearRGB;solid-color:#000000;solid-opacity:1;vector-effect:none;fill:#000000;fill-opacity:1;fill-rule:nonzero;stroke:none;stroke-width:0.70555556;stroke-linecap:square;stroke-linejoin:miter;stroke-miterlimit:4;stroke-dasharray:none;stroke-dashoffset:0;stroke-opacity:1;color-rendering:auto;image-rendering:auto;shape-rendering:auto;text-rendering:auto;enable-background:accumulate"
       d="m 88.635417,62.932621 7.98866,-7.98866 c -0.2319,-0.02948 -0.40256,-0.03772 -0.40256,-0.03772 h -7.5861 z"
       id="path4544-0-0-9"
       inkscape:connector-curvature="0" />
    <path
       style="color:#000000;font-style:normal;font-variant:normal;font-weight:normal;font-stretch:normal;font-size:medium;line-height:normal;font-family:sans-serif;font-variant-ligatures:normal;font-variant-position:normal;font-variant-caps:normal;font-variant-numeric:normal;font-variant-alternates:normal;font-feature-settings:normal;text-indent:0;text-align:start;text-decoration:none;text-decoration-line:none;text-decoration-style:solid;text-decoration-color:#000000;letter-spacing:normal;word-spacing:normal;text-transform:none;writing-mode:lr-tb;direction:ltr;text-orientation:mixed;dominant-baseline:auto;baseline-shift:baseline;text-anchor:start;white-space:normal;shape-padding:0;clip-rule:nonzero;display:inline;overflow:visible;visibility:visible;opacity:1;isolation:auto;mix-blend-mode:normal;color-interpolation:sRGB;color-interpolation-filters:linearRGB;solid-color:#000000;solid-opacity:1;vector-effect:none;fill:#000000;fill-opacity:1;fill-rule:nonzero;stroke:none;stroke-width:2.66666675;stroke-linecap:square;stroke-linejoin:miter;stroke-miterlimit:4;stroke-dasharray:none;stroke-dashoffset:0;stroke-opacity:1;color-rendering:auto;image-rendering:auto;shape-rendering:auto;text-rendering:auto;enable-background:accumulate"
       d="m 378.11523,297.51953 31.94141,31.94141 30.05664,30.05859 h 3.76563 l -31.93164,-31.94141 -30.06055,-30.05859 z"
       transform="scale(0.26458333)"
       id="path189"
       inkscape:connector-curvature="0" />
    <path
       style="color:#000000;font-style:normal;font-variant:normal;font-weight:normal;font-stretch:normal;font-size:medium;line-height:normal;font-family:sans-serif;font-variant-ligatures:normal;font-variant-position:normal;font-variant-caps:normal;font-variant-numeric:normal;font-variant-alternates:normal;font-feature-settings:normal;text-indent:0;text-align:start;text-decoration:none;text-decoration-line:none;text-decoration-style:solid;text-decoration-color:#000000;letter-spacing:normal;word-spacing:normal;text-transform:none;writing-mode:lr-tb;direction:ltr;text-orientation:mixed;dominant-baseline:auto;baseline-shift:baseline;text-anchor:start;white-space:normal;shape-padding:0;clip-rule:nonzero;display:inline;overflow:visible;visibility:visible;opacity:1;isolation:auto;mix-blend-mode:normal;color-interpolation:sRGB;color-interpolation-filters:linearRGB;solid-color:#000000;solid-opacity:1;vector-effect:none;fill:#000000;fill-opacity:1;fill-rule:nonzero;stroke:none;stroke-width:0.70555556;stroke-linecap:square;stroke-linejoin:miter;stroke-miterlimit:4;stroke-dasharray:none;stroke-dashoffset:0;stroke-opacity:1;color-rendering:auto;image-rendering:auto;shape-rendering:auto;text-rendering:auto;enable-background:accumulate"
       d="m 116.53516,78.630859 -8.04102,8.041016 -0.25,0.248047 0.5,0.5 0.25,-0.25 7.83398,-7.833984 h 7.79297 0.004 c 0,0 0.90675,-0.0096 1.80273,0.427734 0.89599,0.437312 1.76758,1.253126 1.76758,3.121094 0,1.867966 -0.87594,2.723762 -1.77539,3.193359 -0.89945,0.469597 -1.80664,0.490234 -1.80664,0.490234 h -4.81445 l 8.64258,8.642579 h 5.58398 l 8.29102,-8.291016 -8.29102,-8.289063 h -2.79297 -0.35156 v 0.705079 h 0.35156 2.5 l 7.58594,7.583984 -7.58594,7.585937 h -4.99804 l -7.23243,-7.232421 h 3.11914 0.004 c 0,0 1.05615,-0.01431 2.12109,-0.570313 1.06495,-0.555999 2.1543,-1.717576 2.1543,-3.818359 0,-2.100785 -1.0937,-3.234389 -2.16211,-3.75586 -1.06841,-0.521471 -2.125,-0.498047 -2.125,-0.498047 z"
       id="path4548-1-4-3"
       inkscape:connector-curvature="0" />
    <path
       style="color:#000000;font-style:normal;font-variant:normal;font-weight:normal;font-stretch:normal;font-size:medium;line-height:normal;font-family:sans-serif;font-variant-ligatures:normal;font-variant-position:normal;font-variant-caps:normal;font-variant-numeric:normal;font-variant-alternates:normal;font-feature-settings:normal;text-indent:0;text-align:start;text-decoration:none;text-decoration-line:none;text-decoration-style:solid;text-decoration-color:#000000;letter-spacing:normal;word-spacing:normal;text-transform:none;writing-mode:lr-tb;direction:ltr;text-orientation:mixed;dominant-baseline:auto;baseline-shift:baseline;text-anchor:start;white-space:normal;shape-padding:0;clip-rule:nonzero;display:inline;overflow:visible;visibility:visible;opacity:1;isolation:auto;mix-blend-mode:normal;color-interpolation:sRGB;color-interpolation-filters:linearRGB;solid-color:#000000;solid-opacity:1;vector-effect:none;fill:#000000;fill-opacity:1;fill-rule:nonzero;stroke:none;stroke-width:0.70555556;stroke-linecap:square;stroke-linejoin:miter;stroke-miterlimit:4;stroke-dasharray:none;stroke-dashoffset:0;stroke-opacity:1;color-rendering:auto;image-rendering:auto;shape-rendering:auto;text-rendering:auto;enable-background:accumulate"
       d="m 149.40039,78.630859 v 0.351563 15.023437 l -13.94922,-13.949218 -0.25,-0.25 -0.49805,0.5 0.25,0.25 15.1543,15.154297 V 78.982422 78.630859 Z"
       id="path4599-5-9"
       inkscape:connector-curvature="0" />
    <path
       style="color:#000000;font-style:normal;font-variant:normal;font-weight:normal;font-stretch:normal;font-size:medium;line-height:normal;font-family:sans-serif;font-variant-ligatures:normal;font-variant-position:normal;font-variant-caps:normal;font-variant-numeric:normal;font-variant-alternates:normal;font-feature-settings:normal;text-indent:0;text-align:start;text-decoration:none;text-decoration-line:none;text-decoration-style:solid;text-decoration-color:#000000;letter-spacing:normal;word-spacing:normal;text-transform:none;writing-mode:lr-tb;direction:ltr;text-orientation:mixed;dominant-baseline:auto;baseline-shift:baseline;text-anchor:start;white-space:normal;shape-padding:0;clip-rule:nonzero;display:inline;overflow:visible;visibility:visible;opacity:1;isolation:auto;mix-blend-mode:normal;color-interpolation:sRGB;color-interpolation-filters:linearRGB;solid-color:#000000;solid-opacity:1;vector-effect:none;fill:#000000;fill-opacity:1;fill-rule:nonzero;stroke:none;stroke-width:0.70555556;stroke-linecap:square;stroke-linejoin:miter;stroke-miterlimit:4;stroke-dasharray:none;stroke-dashoffset:0;stroke-opacity:1;color-rendering:auto;image-rendering:auto;shape-rendering:auto;text-rendering:auto;enable-background:accumulate"
       d="m 97.938725,78.675869 -0.60978,0.609783 c 0.351412,0.04467 0.876642,0.147661 1.423686,0.421164 0.90805,0.454022 1.789039,1.289097 1.789039,3.155878 0,1.866784 -0.880989,2.704441 -1.789039,3.158464 -0.908042,0.454022 -1.826246,0.458888 -1.826246,0.458888 v 0.705381 c 0,0 0.918204,0.0049 1.826246,0.458889 0.90805,0.454022 1.789049,1.289097 1.789039,3.155878 0,1.866784 -0.880989,2.704441 -1.789039,3.158464 -0.908042,0.454022 -1.826246,0.458888 -1.826246,0.458888 h -7.586099 v -7.143234 l -0.704869,0.704865 v 7.14375 h 8.290968 c 0,0 1.066175,0.0049 2.142505,-0.533299 1.07633,-0.538168 2.17765,-1.687465 2.17765,-3.789434 0,-2.101966 -1.10132,-3.248684 -2.17765,-3.786849 -0.36486,-0.182427 -0.405241,-0.100856 -0.726572,-0.179834 0.321482,-0.07898 0.361482,0.0012 0.726572,-0.181383 1.07633,-0.538165 2.17765,-1.687467 2.17765,-3.789434 0,-2.101966 -1.10132,-3.248681 -2.17765,-3.786849 -0.395957,-0.19798 -0.789516,-0.321717 -1.130165,-0.399976 z"
       id="path4544-0-0-6-4"
       inkscape:connector-curvature="0" />
    <path
       style="color:#000000;font-style:normal;font-variant:normal;font-weight:normal;font-stretch:normal;font-size:medium;line-height:normal;font-family:sans-serif;font-variant-ligatures:normal;font-variant-position:normal;font-variant-caps:normal;font-variant-numeric:normal;font-variant-alternates:normal;font-feature-settings:normal;text-indent:0;text-align:start;text-decoration:none;text-decoration-line:none;text-decoration-style:solid;text-decoration-color:#000000;letter-spacing:normal;word-spacing:normal;text-transform:none;writing-mode:lr-tb;direction:ltr;text-orientation:mixed;dominant-baseline:auto;baseline-shift:baseline;text-anchor:start;white-space:normal;shape-padding:0;clip-rule:nonzero;display:inline;overflow:visible;visibility:visible;opacity:1;isolation:auto;mix-blend-mode:normal;color-interpolation:sRGB;color-interpolation-filters:linearRGB;solid-color:#000000;solid-opacity:1;vector-effect:none;fill:#000000;fill-opacity:1;fill-rule:nonzero;stroke:none;stroke-width:0.70555556;stroke-linecap:square;stroke-linejoin:miter;stroke-miterlimit:4;stroke-dasharray:none;stroke-dashoffset:0;stroke-opacity:1;color-rendering:auto;image-rendering:auto;shape-rendering:auto;text-rendering:auto;enable-background:accumulate"
       d="m 88.635417,86.745131 7.98866,-7.98866 c -0.2319,-0.02948 -0.40256,-0.03772 -0.40256,-0.03772 h -7.5861 z"
       id="path4544-0-0-9-8"
       inkscape:connector-curvature="0" />
  </g>
</svg>
