<?xml version="1.0" encoding="utf-8"?>
<!-- Generator: Adobe Illustrator 16.0.0, SVG Export Plug-In . SVG Version: 6.00 Build 0)  -->
<!DOCTYPE svg PUBLIC "-//W3C//DTD SVG 1.1//EN" "http://www.w3.org/Graphics/SVG/1.1/DTD/svg11.dtd">
<svg version="1.1" id="Layer_1" xmlns="http://www.w3.org/2000/svg" xmlns:xlink="http://www.w3.org/1999/xlink" x="0px" y="0px"
	 width="296.334px" height="82px" viewBox="0 0 296.334 82" enable-background="new 0 0 296.334 82" xml:space="preserve">
<path fill="#282828" d="M0,0v82h298V0H0z M3,3h31.27L3,33.909V3z M62,57.759c0,14.59-13.35,19.57-20.42,20.09L41.51,78H3V41.908l4-4
	v35.73l34.36,0.061C42.68,73.589,58,71.929,58,57.759c0-14.479-15.73-15.83-16.4-15.88l0.141-3.99C42.4,37.879,58,37.75,58,22.319
	C58,7.259,43.54,7,41.89,7h-3.62l3.99-4.171c1.36,0.04,5.601,0.26,9.82,2.36C56.6,7.429,62,12.164,62,22.184
	c0,10.221-5.72,15.498-11.62,17.938C56.27,42.802,62,48.139,62,57.759z M295,80.369L257.04,43.64L222.85,79h-38.29L146.32,39h22.01
	c0.58,0,15.09-0.671,15.09-16.511c0-4.89-1.39-8.629-4.11-11.29c-4.5-4.4-11.18-4.2-11.26-4.2H133.32L99.46,40.63L137.82,79h-5.681
	L93.66,40.569l0.13-0.04L56.18,3h5.641l34.81,34.8L131.68,3H168c0.3,0,8.41-0.321,14.1,5.239c3.53,3.45,5.32,8.331,5.32,14.34
	c0,19.82-18.87,20.42-19.06,20.42H155.68l30.59,32h34.881l33.05-33.99L220.83,7H204V3h18.5l35.73,36.219L291,70.908V4h4V80.369z"/>
</svg>
